<svg width="640" height="1381" fill="none" xmlns="http://www.w3.org/2000/svg"><path d="M597.676 1360.28c3.499 2.95 2.201 6.69 4.284 10.09 1.938 3.17.832 1.17 4.301 2.03 5.474 1.37 10.155 6.77 16.247 7.52 2.071.25 4.521-.45 5.954-1.3.699-.42-.514-2.02.493-2.55.983-.51 2.416.22 3.167-.08 3.352-1.32 9.737-4.44 6.445-9.38-1.567-2.36-9.801-5.76-12.445-7.03a23.88 23.88 0 00-10.499-2.29c.737-1.45 2.423-2.83 2.144-4.75-6.466-.1-13.543 4.11-20.091 7.74zm-43.494-16.59c.819 5.27-12.324 25.81 1.089 26.45.76-4.76 2.708-11.56 2.285-16.43-4.849 6.53 2.027 12.78 4.487 18.02 2.485-1.86 5.793-4.34 7.983-5.08 3.293-1.1 8.865 1.09 8.116-5.07-.541-4.46-9.003-8.3-12.01-11.97-2.267-2.77-4.034-6.69-11.95-5.92zm-26.513-23.75c2.913 2.33 5.506 4.63 7.871 7.49 1.063 1.28 1.959 2.67 3.841 2.18.836 4.96 7.481 11.08 12.819 11.41 2.521.16 6.387-1.1 8.824-1.48 1.343-.22 5.884-.71 6.921-2.2.867-1.24-.472-2.48-.416-4.04 2.591-.4 9.991-.99 6.688-4.64-2.725-3.02-8.604-4.26-12.481-3.77.356-3.06 5.892-2.44 7.194-4.43 2.205-3.39-3.538-8.84-5.955-10.21-4.898-2.77-10.734.32-15.393 2.18-2.215.88-4.957 1.55-5.903 4.05 2.858-.33 7.59-.64 8.409-4.09.233-.99-.155-6.65-.911-7.3-2.897-2.49-10.859 6.42-11.996 8.95 1.768 1.57 2.013-1.04 1.951-2.3-.104-2.13-1.234-4.15-3.37-4.55-.521 4.29-1.839 11.42-8.093 12.75zm-41.945-.81c-1.963 4.74-4.845 8.76-5.828 13.99-.402 2.14-.534 3.53.649 5.48.901 1.48 2.937 2.6 3.087 4.4 5.25-1.24 10.197-10.61 5.278-14.59.715 5.13-.083 10.49.283 15.68.299 4.24.286 8.55.719 12.76.433 4.2 1.5 5.56 5.618 7.22 5.215 2.09 7.959-1.98 9.832-6.64.51-1.27 2.048-6.34.685-7.5-1.477-1.25-4.623 1.36-4.897 2.93-.37 2.13 1.27 2.67 2.987 3.35 3.608 1.42 7.203 2.81 10.913 3.94 2.349.71 7.959 3.56 9.881 1.21 2.685-3.28-2.807-14.16-4.129-17.53-1.899-4.83-3.796-12.32-7.808-15.85-4.142-3.65-9.463-3.37-14.532-3.7.719.83 5.132 4.95 6.54 4.21 2.162-1.13-1.012-6.52-1.751-7.97-1.654-3.24-5.866-4.6-9.383-4.62-1.67-.01-7.803.97-8.144 3.23zm-29.034 11.31c.877 3.58-4.966 8.67-7.085 11.13-2.781 3.23-4.797 6.83-8.447 9.15 2.64 1.06 8.609 2.39 11.487 1.21 4.902-2.01 6.151-9.64 5.361-14.18-5.488 6.26-9.915 12.21-13.837 19.5-2.862 5.33-1.236 8.85 1.287 14.15 4.499-3.25 10.562-5 14.621-9.04 4.156-4.14 2.386-11.4.552-16.31-1.926 3.2-2.792 11.54-1.802 15.4 4.132-.34 12.126-2.61 12.701-7.44.486-4.09-3.28-7.15-5.069-10.44-1.135-2.09-1.909-3.93-3.896-5.39.055 5.28 2.592 5.14 6.863 4.47-.892-6.24-4.983-13.5-12.736-12.21zm-22.686-118.35c.155 2.75 1.585 6.43 2.767 8.9.851 1.78.971 4.1 2.517 5.47 4.344 3.83 8.365 2.42 12.794-.29-.659-.94-1.889-1.65-2.759-2.49-1.682-1.62-3.028-3.59-4.804-5.13-.772 2.49 2.063 8.79 3.464 11.13 2.289 3.83 5.338 7.23 9.057 9.72.931.63 1.509 1.25 2.514 1.22 1.261-.02 4.761-2.52 5.457-3.59 2.006-3.1 1.342-10.23-.596-13.26-2.803-4.38-3.689-.02-3.659 2.76.009 1.1-.018 2.13.678 2.76 1.209 1.1 5.083.16 6.51 0 3.037-.36 6.027-1.1 9-1.8 1.074-.25 4.374-.31 4.799-1.62.506-1.56-5.105-6.21-6.367-7.36-4.271-3.89-9.751-7.48-15.456-8.65-3.882-.8-9.283-1.81-13.134-.18 4.915 1.23 12.325.87 14.697-4.39-2.73-.72-6.209-.48-9.106-.88-1.917-.27-3.874-.55-5.792-.15-2.146.44-11.832 4.52-12.581 7.83zm-71.665-5.49c-3.437 1.69-6.29 4.84-9.659 6.79-1.98 1.15-3.969 2.32-5.792 3.57 3.609 1.02 9.634.36 13.107-1.25 1.096-.51 7.934-4.12 6.313-6.31-2.194-2.97-9.86 8.37-11.011 9.89a284.773 284.773 0 00-7.913 10.96c-1.37 1.99-2.846 3.97-4.03 6.07-.318.57-2.111 3.14-2.015 3.79.618 4.36 19.141-1.12 17.914-8.4-4.188 2.01-7.803 5.69-11.268 8.76-.906.81-3.18 2.58-2.883 4.1 1.061 5.48 14.449-3.16 16.058-4.82 4.176-4.31 7.142-10.64 6.491-16.71-.825-7.67-5.547 4.56-6.553 6.72-1.561 3.37-2.702 6.28.324 8.8 1.711 1.43 3.846 3.68 6.111 4.04 3.565.57 6.364-1.98 8.869-3.97 3.346-2.66 4.691-5.87.796-9.19-1.364.97-1.123 3.4.144 4.09 2.114 1.15 10.495-.32 12.08-2.22 2.126-2.55-3.077-6.6-4.67-8.28-1.217-1.28-8.868-7.32-10.923-5.77-2.444 1.84 5.423 7.24 7.255 7.46 3.249.38 8.01-2.15 10.854-3.4 3.055-1.33 7.95-5.85 4.459-8.97-2.439-2.18-7.903-1.95-10.894-2.29-3.789-.42-7.521-.58-11.288.04.962.86 7.617 4.8 8.876 3.73 2.043-1.74-3.802-5.28-4.826-6.05-1.825-1.36-13.549-5.77-12.735-.05 5.088 1.1 9.685-4.36 9.988-9.06-2.574 1.74-5.858 2.34-8.44 4.14-2.124 1.48-3.151 2.31-4.739 3.79zm-26.011-19.49c1.062 4.65-13.698 10.52-8.021 14.23 1.967 1.29 8.889 1.15 9.06-2.26.18-3.63-4.775-.17-5.967.92-2.13 1.95-8.274 7.58-8.328 10.78-.026 1.54 1.839 5.31 3.381 6.05 3.874 1.87 7.273-4.04 9.212-6.35-2.785-.69-5.995 3.44-6.882 5.85-.777 2.11-.622 4.02-.248 6.19 6.233.06 12.615-7.02 14.32-12.63 1.413-4.66-1.335-11.79-5.645-14.27-1.087 1.43-1.459 3.16-.987 4.91 2.762-.03 7.393-.86 7.718-4.23.267-2.77-3.824-8.35-7.613-9.19zm-3.936-35.06c.842 4.62 3.101 9.96 2.682 14.76-.294 3.38-2.781 4.76-3.787 7.59 1.1 1.07 4.7.16 6.114-.11 3.109-.58 7.262-2.46 7.148-6.31-.202-6.79-5.266 3.59-6.096 5.32-1.046 2.19-3.149 4.29-.343 5.29 2.126.75 7.215-1.22 8.769-2.61 1.88-1.68 1.895-3.58 1.454-5.89-3.505.31-8.309 5.66-7.7 9.32.669 4.03 4.339 8.62 6.548 11.97 1.992 3.02 3.514 6.15 7.571 5.42 1.662-.3 5.967-1.5 6.441-3.39.518-2.09-6.19-4.92-7.773-5.76-.356 6.23 3.024 9.95 8.517 10.55 3.447.38 6.723 1.33 7.655-2.82 1.451-6.45-.731-15.5-3.423-21.33-1.827-3.96-4.644-7.91-8.728-9.66-3.644-1.56-6.542-1.12-10.135-1.6 2.175 4.41 8.648 3.33 12.201 1.31 5.842-3.33-.091-4.98-4.437-5.57-7.207-.97-17.585 2.17-22.678-6.48zm92.414 19.62c1.872 2.23 4.502 4.62 7 6.16 1.574.98 3.069 1.5 4.384 2.77 1.942 1.87 1.967 4.57 3.629 6.58 2.206-1.87 2.247-6.54 1.674-9.16-.413-1.89-3.387-4.37-3.513-1.05-.079 2.05 3.037 4.69 4.286 6.06 1.274 1.4 2.174 3.21 3.468 4.51 2.508-2.3 1.335-9.62-1.122-11.54-1.893 1.32 1.124 6.23 2.154 7.7 1.963 2.81 3.891 3.75 7.156 3.64 4.372-.15 8.811-1.33 12.438-3.77 5.066-3.4-5.491-7.64-8.242-8.5-.544 1.79 3.038 4.56 4.69 5.22 1.418.58 3.098.32 4.562.1 1.911-.28 7.552-2.04 7.294-4.56-.13-1.31-2.5-2.09-3.484-2.8-1.364-.98-2.403-2.3-3.698-3.35-2.112-1.71-4.844-3.67-7.327-4.83-2.973-1.41-5.156-.84-8.229.57-2.371 1.08-11.603 5.16-10.949 8.04 4.886 1.63 7.95-7.02 5.724-10.49-2.07.83-3.767 3.19-5.789 4.4-1.239.74-2.559 1.4-3.915 1.95-3.941 1.62-8.313 1.72-12.191 2.35zm-116.716-59.86c-5.821 2.57-11.148 5.28-16.02 9.54 1.313 2.1 5.12 2.91 7.48 2.48 1.861-.34 8.275-3.64 4.758-5.79-2.931-1.79-13.878 6.61-15.516 9.06-1.2 1.79-3.441 9.51-1.553 11.6 1.318 1.46 6.893.14 8.547-.13 4.415-.71 8.629-4.34 8.688-9.24-4.628-.11-12.304 5.72-11.338 10.84.902 4.79 3.97 4.36 8.362 5.01 4.051.59 8.685 1.76 12.771.93 5.526-1.13 6.761-4.44 6.092-9.87-.593-4.82-2.486-12.46-7.401-14.44-2.846 4.27 5.339 4.93 7.727 4.44.181-1.51-1.109-2.82-1.617-4.2-.648-1.78-.453-4.09-1.454-5.7-2.109-3.39-5.494-2.66-9.526-4.53zm-9.15-43.15c-.028 3.98-2.167 7.74-2.354 11.74-.161 3.5.072 4.64 3.505 4.23 2.172-.26 5.843-.15 7.468-1.94.991-1.1 1.747-4.26-.116-4.86-2.968-.97-5.207 6.09-6.35 7.98-3.562 5.9-2.574 14.33 1.954 19.49 3.844 4.38 9.976 5.83 15.574 6.87 8.859 1.64 7.299-8.22 4.621-14.24-1.763 1.8-2.582 7.91-1.01 10.21 2.388 3.48 11.231 4.66 14.768 2.91 4.673-2.3-1.782-8.11-3.848-10.45-3.509-3.96-7.709-7-11.531-10.6-2.592-2.45-4.86-5.11-7.969-6.84.215 9.75 23.747 20.92 25.702 6.72.662-4.8.008-6.3-4.352-8.32-3.995-1.84-8.003-3.63-12.089-5.26-3.368-1.35-8.476-4.29-12.185-3.62-.37 6.58 6.909 3.99 9.823 1.61 2.281-1.87 4.174-5.88 3.386-8.84-7.543 2.92-16.534 4.08-24.997 3.21zm-38.359-42.19c.046-.3-.059-.48-.311-.54-3.531 3.6-7.912 5.07-12.421 7.12-7.024 3.18 5.324 4.41 8.273 3.74 1.793-.4 5.084-2.11 2.104-3.62-1.392-.71-4.887 1.01-6.161 1.72-4.112 2.3-7.358 6.75-10.957 9.72-3.521 2.9-8.153 3.99-11.65 6.74-2.53 1.99-2.548 6.12-1.562 9.18.849 2.64 3.642 2.48 4.658 4.7 1.279 2.78-.255 5.14 2.39 7.51 2.682 2.41 10.148 6.27 13.81 5.7 3.783-.59 6.363-6.23 7.776-9.16 2.286-4.75 6.049-12.08 6.09-17.39-6.424 4.86-15.756 8.35-9.231 17.11 3.104 4.17 7.981 8.78 12.971 10.57 5.845 2.09 15.747-7.54 11.35-13.14-1.136-1.44-5.675-5.23-7.858-4.23-3.32 1.51.116 5.39 1.966 6.48 2.664 1.58 5.306 1.88 8.316.95 8.556-2.67 18.635-11.79 18.516-21.24-.061-4.91-6.176-5.9-10.101-7.13-4.444-1.38-8.904-2.6-13.417-3.67-2.435-.57-5.071-1.72-7.528-1.8.046 6.45 12.021-.62 14.239-2.55-5.042-.49-19.963-.79-21.262-6.77zm-30.626.53c-2.389 4.29-8.339 6.44-12.787 7.6-4.27 1.11-7.945 2.65-11.841 4.87-3.011 1.71-8.367 2.7-2.644 4.59 4.43 1.47 13.623 1.01 15.11-4.5-3.688.07-8.254 3.15-11.803 4.45-2.661.98-5.365 1.55-8.062 2.39-3.265 1.01-5.111 2.11-6.901 5.1-1.529 2.55-4.289 5.97-4.863 8.92-.865 4.46 7.124 5.85 10.503 6.69 7.185 1.79 13.2-3.79 17.152-9.68-3.719.92-12.19 3.43-10.707 8.9 1.403 5.17 6.043 1.56 9.038-.15 4.756-2.73 10.034-6.86 12.784-11.75 2.543-4.52.724-10.61 1.408-15.49-2.081 2.6-3.378 6.55.789 7.86 3.5-6.53 5.023-13.53 3.965-20.92-.324-.12-.664-.18-1.141 1.12zm53.237-130.987c-.567 6.026-10.825 11.292-7.718 17.624 1.033 2.104 4.902 4.373 7.411 4.086 3.668-.416 3.948-6.704 3.895-10.499-8.837 5.835-3.738 21.483-1.007 29.598 1.933 5.748 6.032 4.572 10.977 1.675 2.093-1.229 5.753-3.6 5.759-6.511.005-2.502-2.513-3.67-5.009-1.867-4.938 3.566 5.735 7.214 8.245 8.326 3.616 1.602 8.261 2.779 9.154-1.957.692-3.679-1.33-9.724-1.931-13.497-.824-5.189-2.225-9.893-5.551-14.085-.821-1.037-10.14-11.366-11.868-6.357-.265.761 9.451 3.153 7.106-3.116-2.636-7.024-13.014-4.54-19.463-3.42zm17.471-43.902c-1.57 6.111 1.83 13.69 2.23 19.766 4.904-.019 7.587-7.062 6.497-11.164-5.002.441-1.583 15.79-.633 18.703 3.383-1.269 8.211-8.958 7.084-12.621-4.662.361-3.997 9.49-2.496 12.32 2.898 5.454 9.316 6.156 14.891 6.945 1.856.262 8.357 2.051 9.873.002 3.574-4.823-10.816-18.353-14.978-18.712.117 7.726 12.109 7.917 11.558.696-.296-3.88-8.005-7.424-11.334-8.412-3.24-.963-7.077-1.422-10.453-1.596.298 4.532 11.148-.915 8.915-4.712-.63-1.072-10.12-.14-11.745-.376-2.864-.431-5.678-1.718-9.409-.839zm-80.69-18.042c-3.964 6.803-16.403 2.76-22.199 5.829 3.105 3.543 8.789 6.479 13.564 6.519 1.991.014 5.226-.174 4.19-2.965-3.061.286-5.527 2.608-8.048 4.221-3.917 2.504-8.351 3.831-12.676 5.486a251.44 251.44 0 01-13.152 4.602c-2.714.87-6.513 1.482-8.108 4.026-4.053 6.47 3.592 10.008 8.86 10.56 8.758.916 30.856-.35 31.612-13.112-3.867-1.674-13.599 1.633-16.149 5.215-1.883 2.649-.947 7.936-.853 11.044.101 3.437.127 6.071 3.451 7.654 3.673 1.746 8.497 1.579 12.429 1.413 6.815-.286 15.378-1.129 15.341-9.611-.029-6.828-.786-15.628-2.457-22.27-.634-2.523-1.786-4.188-4.116-.784-3.99 5.831 10.969 4.74 14.299 4.164.036-8.636-9.899-15.565-18.007-15.015 2.222 3.042 15.863 6.093 15.294-.227-4.101-.296-10.016-1.434-13.275-6.749zm-11.35-30.772c-3.231.261-6.208.989-9.193 2.117-2.321.876-6.862 1.85-8.73 3.294-2.103 1.626-2.311 3.964 1.039 4.944 2.543.747 8.161-1.216 8.374-3.927-6.627.33-12.009 3.708-17.133 7.789-3.537 2.816-10.938 9.945-8.481 15.299 2.133 4.644 14.749 1.448 19.185.426 3.561-.819 4.588-1.663 5.768-5.476.682-2.199 2.008-7.897-1.221-8.67-2.092 2.174-4.752 6.368-4.447 9.562 3.551 1.613 8.843.196 10.488-3.259 1.446-3.043 2.1-10.916-.464-13.45-4.383 4.529 1.65 8.987 5.074 5.793 1.45-1.353-.133-5.739-.085-7.389.079-2.695 2.185-5.691-.174-7.053zm231.456 169.191c-3.481 6.038-6.355 4.097-11.35 1.051-7.849 5.466 6.339 15.61 7.19 9.065.996-7.646-17.971-1.582-20.856-.364-2.784 1.175-12.183 3.593-8.025 7.597 2.232 2.15 17.146 4.112 16.24-.06-.958-4.407-23.123 1.202-25.315 4.1-3.355 4.434 3.842 9.013 7.426 10.143 6.146 1.95 19.15.46 21.891-6.379-7.195-2.084-11.986 2.569-14.396 8.649-2.346 5.91.925 6.39 6.586 7.33 7.488 1.25 14.377.69 20.906-3.53 3.143-2.04 6.137-6.25 6.151-10.166.012-3.488-3.15-5.256-6.228-6.25-1.109 5.648 4.342 9.896 9.184 10.766 2.226-8.252.455-13.617-4.937-20.221-.453 6.383 6.946 9.189 12.057 8.208-2.014-2.113-4.603-4.239-6.292-6.813-1.656-2.521-1.944-5.423-3.053-8.153-1.156-2.84-2.565-6.879-7.179-4.973zm22.141 41.162c-3.495 3.35-6.213 6.9-10.193 9.85-1.745 1.3-4.191 2.53-5.406 4.34 2.925 2.19 9.708 4.19 13.189 1.82 3.785-2.58 1.702-6.54-2.608-4.96-3.722 1.37-2.699 4.64-3.285 7.96-.754 4.25-1.329 8.34-.316 12.67 1.72 7.34 6.194 4.76 11.659 6.87 4.656 1.8 7.214 5.79 10.605-.54 4.502-8.41 4.043-24.92-7.132-28.59-3.379 7.9 7.832 8.24 12.349 6.54-.772-3.16-5.049-8.27-7.102-11.02-2.768-3.71-6.293-3.74-11.76-4.94zm2.034-73.011c-6.538 7.184-9.724 15.639-3.403 23.805 1.368-1.082 10.582-8.176 6.973-10.862-1.566-1.164-5.215 2.532-6.769 3.276-2.682 1.284-5.627 2.025-8.357 3.187-1.372.583-6.288 1.912-7.061 3.267-1.372 2.407 1.189 3.031 2.08 4.996.593 1.306.431 2.963.76 4.375 1.224 5.256 4.244 6.757 9.638 7.18 3.806.296 8.653.575 12.256-.913 1.404-.579 8.032-4.569 5.735-6.951-3.853-3.992-10.308 10.632-10.71 12.584-.857 4.123-.91 11.502 4.043 13.358 5.224 1.962 12.417-2.476 14.426-7.118.835-1.926 2.734-7.767-.986-8.027-4.645-.319-2.093 5.809-.654 7.507 6.039 7.108 10.511-.569 12.058-6.72.596 3.386-1.21 7.947 2.951 8.569 1.058.157 2.899-.19 3.719-.803 2.002-1.497.531-3.378 1.787-5.043 2.212-2.939 12.16-1.679 7.882-7.775-2.287-3.258-7.731-6.574-11.009-8.802-3.703-2.516-6.619-5.492-11.03-6.528-.146 5.154 11.271 7.453 15.285 8.641 3.796 1.123 11.585 3.548 14.985.191 4.794-4.73-5.455-9.034-8.368-11.184-5.103-3.765-9.834-6.714-15.719-8.832 1.242 2.605 9.32 9.825 8.445 2.722-.521-4.245-8.102-9.185-11.807-10.546-2.58-.949-6.42-2.165-9.221-1.939-1.975.159-3.922.996-.642 2.344 3.102 1.274 7.093-3.438 4.699-5.508-3.111-2.685-21.285-3.506-21.986 1.549zm-17.651-105.044c-3.822.764-9.669 7.048-9.847 11.122 2.123-.13 11.781-1.29 11.901-4.408.068-1.849-2.856-.688-3.699-.196-2.089 1.217-2.408 2.687-2.38 4.901.052 4.217 1.969 8.364 3.428 12.225 1.161 3.07 2.254 7.51 5.777 8.751 3.996 1.41 9.099-1.714 9.8-5.83.96-5.604-5.195-1.406-3.85 2.471 1.048 3.012 6.704 5.275 9.638 4.97 5.078-.529 3.984-4.725 3.741-8.846-.341-5.738-2.597-12.214-6.519-16.514-2.867-3.145-9.378-7.527-14.019-6.681-1.807 4.218 3.988 1.9 5.204-.382 1.313-2.465 1.004-5.811.081-8.397-2.607.964-5.447 2.656-7.982 3.985.008.316.125.576-1.274 2.829zm-10.671-28.287c-1.019 3.595 8.117 11.101 11.151 11.993 2.917.859 5.663-1.146 8.486-1.757.05-2.39-4.167-6.945-6.142-8.214-1.126 4.53 4.016 3.629 7.121 3.918 4.305.398 7.401 4.078 11.607 5.083 3.707.89 5.02-.435 4.81-4.26-.325-6.005-1.643-10.907-8.056-12.903-1.523-.474-12.014-.976-9.225 2.662.848 1.109 9.887 1.833 11.168.411 1.975-2.194-3.073-6.56-4.595-7.776-4.042-3.225-6.363-2.503-10.105.808-1.105.977-11.119 7.843-6.057 8.392 3.923.425 4.092-6.955 1.607-8.608-4.548 2.701-8.982 5.589-11.77 10.251zM52.698 720.704c-7.643.653-16.692-2.309-19.93-9.689-9.108 8.314 3.594 17.479 10.059 8.095-12.414-6.461-32.206 4.137-39.27 13.783-2.599 3.549-5.743 11.27-.007 13.095 4.816 1.535 22.455-7.527 23.298-12.143-4.553-.063-19.925 8.511-13.337 15.027 3.235 3.203 11.064-2.267 13.844-3.559 7.865-3.65 19.91-10.914 17.892-21.212-4.526.857-7.152 10.468-2.182 12.157 2.884.973 9.066-12.743 9.633-15.554zm53.238-31.629c-8.544.4-15.308 8.366-19.892 14.552 3.89-.323 16.204-1.228 13.774-7.564-6.452 2.06-24.337 14.235-22.916 22.871.688 4.169 6.455 5.767 10.648 4.549 5.089-1.477 9.58-9.35 10.785-14.243-3.358 1.221-10.577 5.995-11.174 10.273-.626 4.482.823 3.7 4.154 5.346 3.587 1.772 7.495 2.982 10.284.912 3.754-2.784 3.624-10.385 2.769-14.312-6.303 1.04-3.372 17.618 4.143 14.961 9.25-3.275 3.884-21.946-1.705-25.476-.47 5.56 4.534 9.92 5.89 2.79 1.017-5.38-2.179-10.066-6.76-14.659z" fill="#EEE5D9"/><path d="M139.483 654.609c-6.499 1.961-4.877-5.291-7.796-6.564-4.317-1.881-4.891 4.093-4.059 7.143.595-6.433-6.118-8.09-9.742-11.335-4.753 4.155-4.845 13.344 3.557 12.653-1.084-6.3-21.039-1.917-25.695-1.053-3.41.634-15.808 4.201-10.335 9.243 2.196 2.024 11.066-1.178 14.19-.678-6.471-6.138-18.743 9.192-21.56 14.228 2.182.951 4.842.789 7.307.562.468 6.257 1.506 6.053 7.026 6.508 5.151.425 8.666 3.803 13.522 4.22 13.938 1.19 19.277-17.634 24.305-26.456-3.612.155-8.508 3.248-7.067 7.389 7.536 3.095 5.803 4.021 11.736-3.505 3.151-4.001 7.133-7.684 4.611-12.355zm60.751-25.612c-10.628-4.86-20.902 6.198-23.756 15.547 4.527 1.596 14.455.52 14.559-5.811-5.706-.267-14.851 3.844-19.791.257-3.189-2.314-1.88-5.977-6.656-6.715-10.384-1.608-7.643 25.258 6.908 20.804.51-3.167-12.967-11.766-16.878-11.86-6.034-.151-6.475 6.795-6.222 11.509.42 7.825-1.292 12.164 7.696 12.904 5.126.423 20.543-1.356 18.708-9.335-6.646-1.867-19.77 7.564-16.861 15.267 2.187.433 4.506.331 6.691.019-.159 4.028-4.178 6.989-3.13 11.512 8.829.841 6.481 8.822 15.304 8.633 9.104-.191 24.517-.564 23.356-12.043 4.691 7.985 16.35-7.572 17.029-12.518.948-6.932-8.263-9.343-13.844-11.21-.012 2.03.202 4.123.944 5.921 6.37-12.207.928-20.202-4.057-32.881z" fill="#EEE5D9"/><path d="M224.341 651.214c1.244 10.694 9.112 17.438 11.531 27.138 1.824 7.313 7.186 20.643 3.57 27.923-11.602-1.227-25.701-7.193-30.871-18.928-2.067-4.693-1.768-9.515.985-13.828 3.268-5.119 11.784-11.924 14.785-22.305zm24.42-147.825c-5.113 2.605-1.399 12.652-3.51 17.217-2.456 5.317-5.155 1.6-9.47 4.349-4.871 3.101-16.053 27.842-21.548 14.684-2.684-6.424.976-6.529-6.705-6.438-6.007.07-9.523 1.124-12.696-4.476-5.632-9.939 14.369-23.429 22.547-26.097 4.218-1.376 9.473-5.95 13.767-6.373 6.129-.608 8.731 6.59 17.615 7.134zm12.084-52.666c-11.72 3.829-15.408 17.419-22.479 25.395-10.89-3.731.66-17.397 6.205-19.942-4.172 12.637-20.941 24.84-33.981 18.621-10.7-5.099-10.407-8.659-2.342-15.247 4.856-3.964 7.234-14.221 14.437-13.59 4.472.393 8.782 5.203 12.618 6.846 3.592 1.54 7.558 1.555 10.882 1.791-10.106 4.003-14.938-.032-15.415-10.13 5.571 8.273 18.217 2.333 30.075 6.256zm80.179 26.53c-2.684 10.906 10.175 15.488 17.627 19.76-7.502 3.258-23.099-1.925-22.291-11.378 14.219 10.488 19.822 22.3 25.991 37.932-5.402-.018-2.87 3.91-5.121 6.22-3.136 3.22-6.347 1.779-10.566-.177-7.928-3.67-11.999-9.702-12.835-18.39-1.033-10.711 5.108-7.274 5.791 2.103.621 8.492-4.742 19.555-14.883 18.114-5.077-.718-7.371-4.418-9.848-7.624-1.055-1.365-1.02-2.345-2.456-3.692-1.246-1.163-3.488-.842-4.531-2.139-4.623-5.75 17.706-23.84 23.99-24.589.24 8.358-34.069 22.501-32.266 6.758.6-5.226 11.407-13.279 16.329-15.33 4.336-1.805 20.271-2.643 19.628 3.77-7.737 1.741-14.252-4.546-15.139-11.877 6.3 2.867 11.606 4.157 20.58.539zm26.244-23.551c-3.661 5.99-8.401 13.643-1.999 20.192 2.461-1.686 2.619-5.069 2.206-7.943-5.75 4.894-9.126 10.09-7.678 17.776.796 4.222 10.221 19.129 13.475 7.977-1.384-.147-2.171.316-3.366.907-.633 3.657 3.455 8.546 7.405 7.625 2.354-.55 5.602-6.477 6.232-8.511 2.383-7.679-4.683-23.761-10.99-28.306-1.046 3.968.871 8.317 1.478 12.352 2.937-.532 4.591-5.41 4.437-8.194-.356-6.411-7.019-8.868-11.2-13.875zm-86.483-99.424c-4.242 4.846-12.288 2.318-17.275 6.97-.901.84-5.176 5.601-4.988 6.774.613 3.818 8.364 3.333 11.556 3.673 3.864-6.21-3.72-5.943-7.153-3.247-3.168 2.486-7.754 6.779-9.831 10.291-2.085 3.525-2.936 12.707-1.249 16.472 1.9 4.241 7.334 3.662 12.496 3.454 11.944-.477 18.94-10.897 18.39-22.55-.66-13.969-9.511-.9.297 3.768 3.295-5.336 1.799-18.253-2.243-25.605zm32.984-32.27c-4.727 7.527-13.95 10.191-19.57 16.373 2.837 2.137 9.227 1.214 12.13-.977-6.259-1.646-13.979 8.659-12.509 14.654 3.972-.132 13.553-1.584 12.317-7.294-7.066-.924-8.05 7.693-5.792 12.597 2.549 5.541 14.729 12.378 20.579 13.666 7.349 1.622 9.497-.195 8.128-7.94-.608-3.447-9.946-24.647-9.458-11.23.286 7.77 15.799 14.104 22.826 12.685 20.024-4.046-6.474-20.76-13.809-22.791-1.961 4.65 7.608 8.756 11.357 6.831 5.437-2.794-3.545-9.544-6.058-13.083-2.396-3.368-3.528-6.196-7.458-6.761-3.209-.46-9.601 1.293-11.644 3.284 4.862 5.752 11.949-3.733 11.21-8.757-3.725.235-9.104 2.142-12.249-1.257zm-8.084-43.791c-4.646 3.234 1.407 11.551-.24 16.147-1.124 3.134-3.968 4.81-4.17 8.231-.243 4.143 2.421 5.478 4.615 8.345 1.843 2.406 3.613 4.533 2.692 7.125-.705 1.98-6.67 6.219-8.463 7.035-6.286 2.872-18.221-4.108-14.964-12.095.611-1.494 1.803-3.785 3.455-1.322 2.012 3-2.72 8.857-4.317 11.154-3.589 5.16-10.598 16.681-18.212 14.748-5.216-1.32-11.188-9.621-13.834-13.859-1.515-2.426-3.296-5.336-2.37-8.28.889-2.814 4.163-2.847 3.452-5.829-1.181-4.959-8.558-5.769-7.924-12.675.92-10.011 6.88-10.013 14.51-9.697.829-7.165.184-10.926 9.531-12.161 4.288-.564 3.139.457 7.883 2.697 2.45 1.156 5.148 1.125 7.26 2.649-10.025 2.307-11.622-5.629-12.7-13.604 7.591 11.275 25.074 4.434 33.796 11.391zm42.852-101.179c.416 4.387 2.221 6.967 3.883 10.869.81 1.904 1.845 3.306-.569 4.189-3.366 1.233-6.059-3.536-5.94-6.194 2.188.457 2.969 4.526 2.548 6.555-.828 3.978-7.326 8.548-10.043 11.355-3.335 3.446-6.918 7.317-12.27 6.877-3.351-.276-5.522-2.829-8.783-3.371-3.533-.588-7.593 1.355-8.405-3.633-.82-5.025 5.813-12.076 9.03-15.327 3.903-3.947 8.296-7.677 13.762-9.032 2.595-.644 10.734-1.556 9.974 3.156-10.412 4.204-10.987-11.007-4.626-15.525.882 6.079 3.189 7.701 11.439 10.081zm14.757-24.851c-4.988 14.324-31.218 5.061-23.445-2.54 1.503-1.47 11.628-3.845 10.352.51-.605 2.069-7.482 2.927-9.478 3.423-4.352 1.081-10.059 2.258-14.487 1.163-4.496-9.925 11.855-25.761 17.988-12.225-5.578 1.53-12.385-11.464-.007-10.243 4.271.422 4.194 3.696 6.644 6.807 1.608 2.039 3.598 3.917 3.599 6.688-1.983.395-2.744-1.576-2.886-3.29-.248-3.044-.091-2.606 2.467-2.643 5.246-.081 7.675 4.546 9.253 12.35zM612.316 1364.24c-11.41-.11-22.209-5.5-32.599-9.65-5.432-2.17-10.876-4.25-16.179-6.73a322.97 322.97 0 01-7.874-3.83s-.008 0-.016-.01c.47.79.962 1.56 1.388 2.38.666 1.29-1.471 2.47-2.247 1.23a58.842 58.842 0 00-5.061-6.92 43.7 43.7 0 00-2.788-2.96c-1.075-1.03-2.244-1.99-3.246-3.09-.889-.97.498-2.76 1.65-2.07 2.008 1.18 3.757 2.92 5.34 4.71.596-.14 1.269-.02 1.785.56 1.631 1.79 4.682 2.77 6.812 3.86 2.458 1.26 4.905 2.55 7.351 3.83 4.755 2.48 9.433 5.13 14.378 7.22 10.114 4.3 20.782 5.58 31.345 8.12 1.712.42 2.017 3.37-.039 3.35zm-70.388-37.37c-15.562-4.61-30.086-11.5-44.022-19.83-6.694-4-13.089-8.5-19.305-13.22-3.181-2.41-6.31-4.91-9.337-7.51-.499-.44-1.01-.88-1.521-1.33 1.595 2.77 3.211 5.52 4.887 8.25 1.807 2.92 3.949 5.56 5.979 8.33 2.017 2.75 3.754 5.74 5.642 8.58 3.19 4.82 5.89 9.79 5.203 15.74-.234 2.02-3.138 1.5-3.062-.45.22-5.82-3.644-11.32-6.506-16.11-2.975-4.98-5.412-10.29-8.497-15.18-6.214-9.87-13-19.3-18.903-29.37-1.242-2.11-2.594-4.14-4.213-5.99-.329-.38-.706-.69-1.059-1.04.053.2.085.41.134.61 1.97 5.58.74 11.85 1.445 17.81.998 8.41 3.817 16.92 6.481 24.94 2.409 7.25 5.296 14.57 5.341 22.33.035 6.72-1.73 13.29-5.905 18.61-1.475 1.89-4.372-.43-2.905-2.31 9.019-11.65 4.529-28.77.762-41.57-2.027-6.9-4.225-13.68-5.741-20.72-.784-3.65-1.792-7.16-1.96-10.92-.07-1.59.096-3.3.204-5.01-.244-1.18-.528-2.35-.918-3.47-.63-1.82-1.523-3.55-2.339-5.31-3.117-3.05-5.99-6.23-7.89-10.22-2.274-4.76-3.813-9.84-6.055-14.62-2.322-4.96-4.928-9.79-7.75-14.48-3.072-5.11-6.356-10.13-10.058-14.81-3.746-4.74-7.398-9.11-10.195-14.5-.524-1.01.98-2.08 1.792-1.32 4.07 3.82 7.138 8.01 10.142 12.71 2.955 4.61 6.149 9.06 9.137 13.65 6.007 9.23 10.705 18.77 14.774 28.99 1.405 3.52 3.3 6.39 5.541 9.12.097.03.198.04.28.11 1.176.97 2.089 2.19 2.881 3.49.162.17.3.34.467.51 3.425 3.57 6.542 7.47 9.383 11.52 3.746 5.33 7.042 10.93 10.286 16.56 2.207 1.75 4.366 3.62 6.492 5.39 2.954 2.46 5.961 4.85 9.036 7.15 6.432 4.81 13.199 9.13 20.129 13.17 13.486 7.88 28.087 14.03 42.829 19.13 1.744.6.593 3.09-1.106 2.59z" fill="#EEE5D9"/><path d="M442.956 1218.18c-9.145-3.92-16.943-9.86-24.041-16.77-7.186-7-15.07-13.28-23.055-19.33-4.589-3.48-9.227-6.75-13.435-10.71-3.892-3.67-7.483-7.63-11.018-11.63-7.674-8.7-15.466-17.29-23.103-26.01-4.501-5.14-8.961-10.31-13.32-15.56-3.892-4.69-9.009-9.62-10.955-15.53-.382-1.16 1.078-1.94 1.857-1.01 3.539 4.26 6.628 8.82 10.329 12.98 3.945 4.43 7.853 8.9 11.68 13.43 7.451 8.83 14.444 18.06 22.159 26.65.856.96 1.757 1.83 2.634 2.74.239-.02.487.02.706.23 8.33 7.65 19.56 3.97 29.599 6.08 5.383 1.13 10.69 3.01 15.927 4.67 5.91 1.88 11.74 3.95 17.557 6.09 2.227.82.769 4.08-1.43 3.36-6.069-1.97-12.085-4.03-18.056-6.27-6.041-2.27-12.025-5.22-18.6-5.39-4.701-.12-11.072.89-16.532.05 4.191 3.64 8.582 7.04 13.191 10.36 8.082 5.83 14.941 12.98 22.427 19.51 8.063 7.04 17.427 13.59 27.273 17.84 2.71 1.17.916 5.38-1.794 4.22zm-102.101-52.95c-.243.5-.438 1.02-.62 1.53-.033.14-.069.28-.142.4-.571 1.75-.858 3.55-1.129 5.42-.424 2.92-.614 5.79-.462 8.74.27 5.17.731 10.64-2.739 14.92-1.35 1.67-3.934-.39-2.609-2.08 3.515-4.5 1.962-10.66 2.016-15.89.027-2.79.416-5.56.84-8.32.186-1.2.384-2.4.797-3.51-3.78-8.74-7.779-17.19-14.013-24.5-5.994-7.04-11.319-13.97-11.969-23.52-.073-1.1 1.598-1.64 1.955-.48 1.394 4.5 3.213 9.17 5.75 13.16 2.439 3.83 5.641 7.06 8.511 10.55 1.781 2.18 3.315 4.51 4.752 6.89-.077-.17-.142-.35-.219-.52-2.412-5.3-5.598-10.17-8.363-15.28-2.521-4.66-4.709-9.52-6.2-14.61-1.394-4.77-2.845-10.21-2.429-15.2.113-1.38 2.372-1.7 2.742-.31 1.381 5.17 1.793 10.53 3.382 15.69 1.722 5.61 3.992 10.85 6.862 15.96 5.27 9.38 9.764 18.55 11.85 29.17.941-.12 1.907.79 1.437 1.79zm19.39 46.83c-.925-8.16-3.581-15.91-6.092-23.68-.487-1.51 1.711-2.39 2.308-.9 3.131 7.8 6.083 15.81 6.996 24.22.22 2.07-2.98 2.43-3.212.36zm-51.953-92.56c-.843.1-1.432-.51-1.598-1.28-.565-2.56-1.086-5.14-1.497-7.73-.415-2.6-.627-5.27-.21-7.88.178-1.12 1.901-1.43 2.279-.26.812 2.51 1.138 5.13 1.395 7.75.253 2.61.538 5.21.904 7.8.11.77-.514 1.51-1.273 1.6zm-7.678-42.96c-1.506-3.57-3.062-7.12-4.532-10.71-1.453-3.54-3.102-7.04-3.87-10.8-.228-1.11 1.41-1.67 2.015-.78 2.168 3.18 3.488 6.84 4.958 10.38 1.486 3.58 2.859 7.2 4.252 10.82.702 1.82-2.064 2.89-2.823 1.09z" fill="#EEE5D9"/><path d="M307.685 1024.21c-1.862-.38-2.913-1.84-4.313-3.01a56.247 56.247 0 01-3.863-3.54c-2.37-2.37-4.627-4.88-6.632-7.57-.767-1.03-1.449-2.09-2.135-3.15.264.74.545 1.47.805 2.2 3.704 10.59 6.118 21.53 9.368 32.25 3.336 11.01 7.276 21.85 10.262 32.96.471 1.76-2.087 2.84-2.693 1.04-3.493-10.39-6.179-21.07-9.263-31.58-3.092-10.55-6.719-20.98-10.735-31.21a747.896 747.896 0 01-11.112-30.249c-1.726-5.028-3.432-10.06-6.679-14.346-2.699-3.562-6.225-6.414-9.731-9.169-.384 2.022-.663 4.032-.772 6.074.205 4.26 1.294 8.593 1.994 12.662.382 2.23.671 4.483.972 6.737 1.796 6.49 4.205 12.821 6.791 19.021 6.518 15.63 13.246 31.18 19.938 46.73.711 1.65-1.893 2.66-2.599 1.01-6.928-16.19-14.285-32.23-20.823-48.59a182.352 182.352 0 01-2.027-5.306c.004.069.013.134.017.203.683 12.973-1.326 26.053-6.755 37.903-1.03 2.25-4.616.68-3.514-1.5 6.204-12.28 7.743-26.17 7.164-39.783-.168-3.939-.657-7.829-1.283-11.699a82.546 82.546 0 01-1.159-6.494c-.102-.516-.191-1.027-.297-1.543-.72-3.618-1.216-7.233-1.032-10.802-6.325 11.761-9.759 24.647-13.683 37.481-4.244 13.87-9.672 27.55-20.428 37.69-1.131 1.07-2.997-.87-1.911-2 10.334-10.78 15.66-25.08 19.965-39.118 4.09-13.329 7.555-27.434 15.045-39.356.002-3.61-.02-7.224-.245-10.826-.306-4.844-.743-9.648-.729-14.513.036-10.631 2.403-20.842 4.483-31.203 2.12-10.573 2.951-21.212 3.286-31.968.168-5.388.104-10.773.199-16.157.099-5.522.611-11.02.694-16.546.011-.8 1.354-.771 1.399.021.319 5.534 1.088 11.029 1.233 16.575.141 5.348.022 10.725-.167 16.068-.384 10.878-1.611 21.748-3.537 32.455-1.897 10.552-4.711 21.446-3.764 32.251.567 6.453 2.18 13.564 1.393 20.162.377-.016.758.065 1.127.394 3.62 3.25 7.236 6.484 10.344 10.242 3.125 3.778 5.03 8.047 6.873 12.547 1.864 4.548 3.744 9.093 5.588 13.654.061.057.138.085.175.187 2.331 6.023 5.809 11.861 9.925 16.831 2.033 2.46 4.257 4.73 6.724 6.75a59.08 59.08 0 003.968 2.98c1.408.97 3.16 1.34 4.183 2.78 1.007 1.43-.189 3.74-2.034 3.37z" fill="#EEE5D9"/><path d="M332.173 412.993c-1.976 6.874-4.678 13.483-6.885 20.284-2.24 6.894-4.123 13.926-6.034 20.917-3.741 13.67-7.324 27.381-10.939 41.088-7.559 28.64-14.549 57.511-23.077 85.878-4.264 14.19-8.861 28.298-13.316 42.431-.623 1.985-1.28 3.959-1.924 5.936-1.805 14.832-5.363 29.457-8.423 44.049-3.888 18.563-6.921 37.322-6.997 56.333-.08 19.658 2.371 39.263 5.626 58.618 1.114 6.623 2.184 13.259 3.266 19.89 1.808 4.857 6.327 7.511 10.446 10.303 4.82 3.271 8.168 7.313 11.066 12.337 2.952 5.118 6.086 10.476 10.115 14.835 4.14 4.48 9.816 7.898 15.309 10.439 2.56 1.183.911 5.023-1.714 4.023-5.927-2.265-10.845-5.95-14.895-10.817-4.233-5.086-6.552-10.934-10.079-16.442-3.462-5.402-8.335-8.653-13.367-12.383-2-1.483-3.984-3.052-5.66-4.855 1.546 9.279 3.181 18.538 5.088 27.748 2.114 10.214 4.167 20.553 7.482 30.462 3.318 9.922 8.085 19.67 12.9 28.942 1.116 2.153-2.424 3.528-3.528 1.367-4.328-8.48-7.452-17.111-10.429-26.131-2.945-8.93-5.805-17.833-8.32-26.897-4.945-17.82-7.55-36.505-9.802-54.827-2.423-19.711-5.503-39.476-6.238-59.341-.707-18.995 1.774-37.47 5.452-56.053 2.399-12.116 4.989-24.183 7.425-36.278-2.337 6.293-5.105 12.415-7.738 18.59-5.413 12.674-12.789 24.873-15.686 38.482-1.481 6.951-1.847 14.057-2.342 21.126-.504 7.171-1.222 14.305-2.241 21.423-4.786 33.437-9.982 66.873-15.64 100.175-.453 2.664-4.582 2.069-4.153-.603 4.804-30.038 10.901-59.88 15.47-89.955 1.124-7.385 2.057-14.795 2.626-22.246.189-2.465.322-4.934.45-7.407-.466 1.308-.952 2.611-1.377 3.934-1.454 4.576-2.879 9.148-3.725 13.886-1.549 8.689-1.853 17.541-3.601 26.209-3.075 15.23-8.255 30.483-21.059 40.235-1.837 1.4-3.777-1.387-2.087-2.868 11.908-10.434 18.702-25.613 21.096-41.071 1.334-8.608 1.03-17.391 2.733-25.95.862-4.336 2.195-8.615 3.892-12.696a302.797 302.797 0 012.739-6.369c.616-1.377 1.13-2.891 1.904-4.206.125-1.714.274-3.423.464-5.132 1.563-13.928 7.755-25.822 13.662-38.289 6.017-12.695 10.428-25.951 14.826-39.271 4.654-14.092 8.906-28.31 12.61-42.683 3.724-14.442 8.114-28.729 12.293-43.044 4.276-14.637 8.219-29.351 11.956-44.129 3.999-15.827 7.342-31.848 11.633-47.597 2.029-7.438 4.289-14.77 6.877-22.037 2.673-7.503 5.294-14.981 9.509-21.769.912-1.433 2.746.063 2.361 1.406z" fill="#EEE5D9"/><path d="M332.61 413.944a64.542 64.542 0 00-3.219 3.43c-.25 2.81-2.687 5.42-4.466 7.421-1.674 1.883-3.499 3.587-5.628 4.89-2.724 3.413-5.387 6.884-8.09 10.302-6.604 8.353-12.769 16.889-20.244 24.524-1.403 1.433-2.85 2.813-4.294 4.196-1.596 2.655-3.132 5.339-4.38 8.205-2.443 5.606-4.618 11.331-6.899 17.006-5.121 12.76-10.546 25.492-16.741 37.764-5.758 11.407-11.289 22.969-19.883 32.536-.434.483-.783 1.031-1.188 1.534.54.414.856 1.08.488 1.762-.953 1.766-2.278 3.349-3.669 4.888a18.5 18.5 0 00.002 2.883c.412 4.99.99 9.575-.196 14.533-1.247 5.221-3 10.312-4.284 15.525-2.607 10.593-4.134 21.442-4.47 32.353-.291 9.408 1.211 20.559-3.774 29.015-.774 1.311-2.928.506-2.247-.959 2.248-4.848 2.518-9.968 2.458-15.235-.059-5.14.015-10.2.467-15.324.944-10.687 2.574-21.317 5.067-31.752 1.202-5.026 2.83-9.959 3.448-15.103.465-3.87-.113-7.589-.46-11.37-2.436 3.101-4.681 6.34-6.781 9.677-2.204 3.499-4.34 7.278-6.975 10.465-.413.499-.928.933-1.37 1.412-2.865 5.322-5.288 10.892-7.406 16.548-2.443 6.508-4.5 13.016-8.631 18.686-2.16 2.968-6.668-.616-4.467-3.563 5.658-7.578 8.81-16.445 13.109-24.731-.122.106-.247.215-.365.321-14.344 12.435-29.378 24.252-44.668 35.492-4.261 3.133-8.502 6.172-12.593 9.524-4.253 3.49-8.665 6.42-13.429 9.162-2.595 1.493-5.408-2.301-2.776-3.814 8.077-4.649 16.605-8.844 24.049-14.464 7.61-5.75 14.92-11.866 22.1-18.14 7.079-6.185 14.105-12.427 21.241-18.551 6.203-5.324 12.735-10.515 17.652-17.099 1.224-1.851 2.456-3.694 3.619-5.585 3.307-5.403 5.425-11.448 8.992-16.693 3.214-4.729 7.402-8.621 10.714-13.277.563-1.064 1.118-2.139 1.697-3.231.126-.236.361-.325.601-.349 2.909-5.038 5.19-10.486 7.739-15.691 6.045-12.337 12.452-24.475 17.881-37.105 2.8-6.512 5.502-13.056 8.658-19.409.069-.142.134-.284.203-.427a321.376 321.376 0 01-10.492 10.589c-7.387 7.087-14.611 14.53-22.789 20.707-2.822 2.134-6.158-2.432-3.243-4.457 8.762-6.078 17.285-12.132 24.96-19.584a327.014 327.014 0 0010.289-10.479c2.829-3.008 5.294-6.296 7.815-9.547 1.025-1.64 2.128-3.227 3.417-4.688.203-.232.458-.349.722-.418 5.93-7.067 12.242-13.719 18.428-20.57 1.727-1.916 3.487-3.811 5.238-5.711-2.308.555-4.684.859-7.029 1.113-4.388.477-8.577 1.953-12.653 3.608-7.879 3.2-15.36 7.216-23.045 10.831-7.976 3.752-16.212 7.021-24.432 10.192-2.21.852-3.344-2.341-1.304-3.371 14.732-7.456 29.903-13.739 45.134-20.07 3.414-1.419 6.853-2.802 10.426-3.791 3.954-1.099 8.034-1.799 11.968-2.951 2.887-.843 5.917-2.222 8.406-3.946 3.235-3.698 6.624-7.355 9.417-11.378 1.037-1.502 3.435.501 2.175 1.739zM115.282 675.8c-1.365 3.243-4.321 6.162-6.603 8.808-2.42 2.805-4.954 5.5-7.605 8.085-5.34 5.199-11.027 10.012-17.255 14.114-12.554 8.278-26.244 14.675-40.82 18.44-2.161.559-3.497-2.674-1.279-3.306 14.077-4.03 27.613-10.13 39.651-18.501 5.835-4.058 11.507-8.392 16.765-13.177a134.216 134.216 0 007.877-7.78c2.437-2.614 4.597-5.975 7.403-8.17.977-.771 2.332.386 1.866 1.487z" fill="#EEE5D9"/><path d="M552.409 3.948c-13.283 24.511-33.323 44.516-52.798 64.075-5.753 5.775-11.554 11.705-17.128 17.862-.097.666-.486 1.27-1.342 1.55l-.085.029c-13.037 14.624-24.613 30.617-30.838 49.224-2.823 8.428-5.143 17.096-8.627 25.281-3.399 7.989-7.411 15.759-11.439 23.444-7.683 14.651-11.878 30.075-14.449 46.365-2.483 15.754-3.724 31.671-6.309 47.413-2.64 16.074-7.837 31.25-15.062 45.832-7.496 15.13-17.013 29.033-26.813 42.733-5.339 7.461-10.21 15.251-15.723 22.589-5.618 7.481-11.374 14.808-17.487 21.887-3.056 3.543-6.19 6.997-9.145 10.626-.936 1.153-2.689-.249-1.801-1.439 5.589-7.497 10.615-15.425 16.038-23.048 5.31-7.461 11.013-14.645 16.643-21.866 10.71-13.728 21.76-27.516 30.505-42.629 4.243-7.332 7.971-15.009 10.677-23.043 2.563-7.629 3.93-15.847 5.297-23.764 2.718-15.718 3.984-31.63 6.114-47.429 2.097-15.567 5.156-31.159 11.164-45.733 3.322-8.055 7.634-15.536 12.056-23.014 4.385-7.42 8.165-15.26 11.077-23.375 5.217-14.539 9.996-29.353 18.361-42.469 3.19-5.005 6.749-9.755 10.47-14.374-7.149 2.592-14.189 5.483-20.977 8.907-9.603 4.848-18.422 10.76-26.993 17.232-2.793 2.11-5.607 4.2-8.417 6.298-3.486 5.042-6.61 10.494-8.449 16.344-1.92 6.098-3.344 12.261-5.645 18.254-4.979 12.975-13.876 23.837-20.806 35.763-6.874 11.83-13.86 23.622-21.971 34.659-7.406 10.083-15.769 19.402-24.874 27.974-5.279 4.967-10.882 9.557-16.343 14.321-5.514 4.818-11.068 9.261-17.268 13.169-2.514 1.582-5.274-2.175-2.736-3.762 10.818-6.751 21.491-13.377 30.892-22.066 9.438-8.722 18-18.414 25.73-28.676 3.895-5.171 7.689-10.509 10.943-16.111 3.526-6.077 6.516-12.438 9.876-18.605 3.46-6.349 7.205-12.438 11.25-18.429 3.883-5.752 7.559-11.549 10.29-17.951 2.755-6.451 5.205-13.032 7.916-19.5 1.405-3.357 2.617-6.723 4.006-10.003-12.366 9.224-24.692 18.517-36.393 28.561-4.626 3.969-9.081 8.133-13.452 12.378-4.309 4.188-8.375 8.718-12.94 12.634-1.314 1.124-3.128-.862-2.074-2.169 6.632-8.248 15.28-15.204 23.214-22.147 2.749-2.403 5.554-4.732 8.348-7.078-.56.008-1.132.008-1.663.048-1.626.121-3.257.25-4.871.493-3.297.494-6.578 1.13-9.831 1.863-2.012.454-2.415-2.819-.367-3.216a91.471 91.471 0 0110.087-1.351c1.691-.138 3.383-.307 5.078-.408 1.497-.089 3.204-.319 4.713-.095 4.744-3.941 9.512-7.857 14.268-11.789 16.845-13.936 32.953-28.944 52.681-38.774a252.834 252.834 0 0132.299-13.367 348.998 348.998 0 019.928-10.967c9.575-10.123 19.54-19.867 29.144-29.965 9.527-10.017 19.07-20.16 25.907-32.278 1.702-3.02 3.387-6.036 4.923-9.146 1.625-3.3 6.948-.95 5.221 2.228z" fill="#EEE5D9"/><path d="M339.545 264.635c-3.78 7.677-9.233 14.378-13.216 21.945-3.886 7.385-7.549 14.928-9.48 23.097-1.886 7.978-2.478 16.488-2.344 24.671.042 2.688-4.095 3.222-4.202.473-.329-8.455.726-16.571 2.957-24.724 1.296-4.726 2.786-9.545 4.682-14.161a62.354 62.354 0 00-2.194 1.883c-2.578 2.354-5.132 4.74-7.544 7.261-4.946 5.167-9.153 11.077-12.748 17.255-7.165 12.321-11.519 25.848-13.941 39.864-.405 2.339-3.954 1.826-3.643-.529 1.911-14.508 7.457-28.397 15.012-40.871 3.785-6.251 8.195-12.064 12.869-17.669 2.258-2.708 4.625-5.322 7.204-7.728 2.598-2.423 5.307-5.053 8.49-6.708.158-.276.283-.573.449-.845 4.645-7.644 9.736-14.727 13.585-22.854 1.803-3.812 3.517-7.645 4.959-11.615 1.547-4.263 2.64-8.656 4.634-12.724.583-1.193 2.17-.64 2.134.602-.224 8.04-4.162 16.269-7.663 23.377zm62.788 47.261c-1.141 6.33-2.147 12.688-3.175 19.038-1.075 6.643-1.903 13.318-3.421 19.883-1.441 6.241-3.271 12.428-5.232 18.522-3.438 10.698-7.736 20.977-13.061 30.818-3.066 9.963-5.515 20.048-6.507 30.471-.533 5.608-.473 11.293-.179 16.917.148 2.822.449 5.62.848 8.418.297 2.075.189 5.652 2.003 7.082 2.134 1.683.055 4.865-2.375 3.983-5.626-2.046-4.904-9.639-4.943-14.475-.056-6.355.107-12.64.834-18.954.893-7.76 2.191-15.486 4.248-22.997-2.683 4.351-5.406 8.675-8.012 13.075-3.55 5.992-6.529 12.248-9.202 18.674-6.033 14.498-11.104 29.41-16.239 44.241-.892 2.578-4.774.895-3.891-1.667 4.516-13.106 9.061-26.174 14.822-38.796 5.843-12.792 13.008-24.848 19.84-37.116 13.005-23.338 20.654-48.851 26.993-74.69 1.761-7.178 3.234-14.478 4.305-21.791 1.051-7.15 1.587-14.138 3.547-21.126.287-1.019 1.663-.417 1.643.464-.167 6.879-1.632 13.286-2.846 20.026zM447.286 811.7c-2.011 1.331-5.106.659-7.329.163a35.01 35.01 0 01-3.144-.855c.199.236.414.455.609.695 7.13 8.697 13.832 19.307 15.732 30.564.565 3.358-4.363 3.717-5.127.578-1.292-5.336-2.86-10.332-5.471-15.193-2.509-4.679-5.614-9.046-8.95-13.169-6.944-8.576-15.124-15.982-22.916-23.758-7.702-7.682-14.414-15.859-20.766-24.678-6.502-9.026-13-17.755-21.4-25.121-8.193-7.179-16.92-13.725-24.947-21.095-7.965-7.317-15.404-15.202-22.514-23.347-7.309-8.373-14.265-17.05-21.205-25.73-6.628-8.291-13.584-16.521-18.2-26.16-5.384-11.242-5.877-23.789-4.767-35.999 1.226-13.469 3.499-26.924 6.433-40.12.457-2.058 3.54-1.659 3.27.473-1.5 11.714-3.388 23.383-4.749 35.11-1.349 11.608-1.935 23.855 2.154 35.019 3.709 10.133 10.851 18.477 17.552 26.752 7.001 8.644 14.058 17.248 21.428 25.58 7.309 8.263 14.942 16.246 23.135 23.636 8.01 7.223 16.867 13.246 25.149 20.108 8.416 6.976 15.189 15.019 20.9 24.325 5.834 9.505 12.238 18.202 20.058 26.176 5.88 5.997 12.036 11.745 17.835 17.827a22.49 22.49 0 004.909 2.78c1.797.736 3.651 1.252 5.586 1.464.933.102 1.866.147 2.803.119 1.188-.036 2.409-.218 3.525.286 1.375.618 1.757 2.673.407 3.57z" fill="#EEE5D9"/><path d="M462.798 946.15c-6.588-9.968-12.973-20.062-19.293-30.204-4.607-7.393-9.644-14.688-13.506-22.531-.285 5.506.643 11.179 1.878 16.422 1.736 7.375 3.601 14.729 5.389 22.096.106.435.212.865.321 1.3.28.138.536.361.698.735 3.192 7.29 8.634 13.189 13.091 19.688 4.29 6.251 7.133 13.257 8.957 20.596 1.854 7.464 2.656 15.078 3.589 22.692.998 8.146 2.166 16.106 4.173 24.076.927 3.68-4.329 5.04-5.102 1.25-3.167-15.54-2.461-31.642-6.33-47.098-1.886-7.538-4.967-14.438-9.404-20.82-2.342-3.367-4.822-6.617-7.018-10.024.813 3.675 1.521 7.374 1.957 11.139.937 8.125 1.31 16.308 1.192 24.486-.043 3.013-4.213 2.986-4.161-.067.137-8.369-.345-16.702-1.262-25.014-.933-8.483-1.752-17.165-4.117-25.389-2.088-7.266-5.036-14.174-6.638-21.594-1.516-7.021-1.56-13.494.177-20.367-.07-.179-.151-.35-.22-.528-4.037-10.653-6.869-21.805-9.864-32.782-1.556-5.71-2.978-11.469-4.669-17.138-1.669-5.609-3.7-11.104-5.378-16.708-3.53-11.778-6.704-24.733-4.901-37.092.416-2.85 4.635-2.191 4.393.64-.997 11.547 1.053 22.264 4.121 33.367 2.994 10.84 6.171 21.545 9.721 32.214 3.506 10.523 6.845 21.061 9.921 31.718 1.523 5.284 2.832 10.851 5.24 15.819 2.399 4.951 5.886 9.468 9.003 13.985 7.399 10.715 14.746 21.451 21.853 32.361 1.644 2.522-2.131 5.314-3.811 2.772z" fill="#EEE5D9"/></svg>