<svg width="319" height="109" fill="none" xmlns="http://www.w3.org/2000/svg"><path d="M151.287 97.738l.104-32.186-9.702-3.431-.065 35.602s4.642.456 9.658.02l.005-.005z" fill="#5D3D1A"/><path d="M151.287 97.738l.104-32.186-9.702-3.431-.065 35.602s4.642.456 9.658.02l.005-.005z" fill="url(#paint0_linear_4011_1629)" fill-opacity=".2"/><path d="M194.842 13.246V50.87h-21.765c-5.421 0-10.806-.905-15.892-2.786l-5.784-2.001V21h-9.658l-.035 21.456c-.963-.39-1.921-.786-2.854-1.186-4.652-2-8.53-4.302-11.634-6.903-3.105-2.601-4.652-6.053-4.652-10.355 0-2.401.524-4.652 1.577-6.753 1.048-2.101 2.6-3.927 4.652-5.478 2.051-1.551 4.576-2.802 7.576-3.752 3-.95 6.453-1.426 10.351-1.426 6.499 0 12.024 1.376 16.575 4.127 4.547 2.752 7.227 7.079 8.026 12.982h10.201c-.599-3.702-1.951-7.029-4.052-9.98-2.102-2.952-4.752-5.453-7.951-7.504-3.199-2.05-6.828-3.602-10.875-4.652C154.6.526 150.378 0 145.976 0c-4.402 0-8.974.6-13.127 1.8-4.152 1.201-7.8 2.952-10.95 5.253-3.149 2.302-5.65 5.203-7.501 8.705-1.847 3.502-2.77 7.503-2.77 12.006 0 5.902 1.497 10.655 4.492 14.257 2.994 3.601 6.762 6.603 11.304 9.004 4.542 2.401 9.458 4.452 14.754 6.153 5.29 1.7 10.206 3.627 14.753 5.778 4.542 2.151 8.31 4.782 11.304 7.879 2.995 3.101 4.492 7.258 4.492 12.456 0 6.503-2.37 11.255-7.112 14.257-4.741 3.001-11.06 4.502-18.946 4.502-6.288 0-11.334-.825-15.122-2.476-3.793-1.65-6.688-3.627-8.684-5.928-1.997-2.301-3.344-4.677-4.043-7.129-.699-2.45-1.098-4.527-1.198-6.227H107.44c.2 4.302 1.323 8.203 3.374 11.705 2.052 3.502 4.852 6.478 8.4 8.93 3.554 2.456 7.731 4.352 12.532 5.702 4.802 1.351 10.052 2.026 15.757 2.026s11.025-.7 15.677-2.101c4.651-1.4 8.629-3.401 11.928-6.003 3.304-2.6 5.854-5.752 7.656-9.454 1.802-3.702 2.7-7.804 2.7-12.306 0-6.203-1.552-11.28-4.651-15.238a37.708 37.708 0 00-4.911-5.147l.039.025h18.901v47.813h9.658V13.246h-9.658z" fill="#5D3D1A"/><path d="M194.842 13.246V50.87h-21.765c-5.421 0-10.806-.905-15.892-2.786l-5.784-2.001V21h-9.658l-.035 21.456c-.963-.39-1.921-.786-2.854-1.186-4.652-2-8.53-4.302-11.634-6.903-3.105-2.601-4.652-6.053-4.652-10.355 0-2.401.524-4.652 1.577-6.753 1.048-2.101 2.6-3.927 4.652-5.478 2.051-1.551 4.576-2.802 7.576-3.752 3-.95 6.453-1.426 10.351-1.426 6.499 0 12.024 1.376 16.575 4.127 4.547 2.752 7.227 7.079 8.026 12.982h10.201c-.599-3.702-1.951-7.029-4.052-9.98-2.102-2.952-4.752-5.453-7.951-7.504-3.199-2.05-6.828-3.602-10.875-4.652C154.6.526 150.378 0 145.976 0c-4.402 0-8.974.6-13.127 1.8-4.152 1.201-7.8 2.952-10.95 5.253-3.149 2.302-5.65 5.203-7.501 8.705-1.847 3.502-2.77 7.503-2.77 12.006 0 5.902 1.497 10.655 4.492 14.257 2.994 3.601 6.762 6.603 11.304 9.004 4.542 2.401 9.458 4.452 14.754 6.153 5.29 1.7 10.206 3.627 14.753 5.778 4.542 2.151 8.31 4.782 11.304 7.879 2.995 3.101 4.492 7.258 4.492 12.456 0 6.503-2.37 11.255-7.112 14.257-4.741 3.001-11.06 4.502-18.946 4.502-6.288 0-11.334-.825-15.122-2.476-3.793-1.65-6.688-3.627-8.684-5.928-1.997-2.301-3.344-4.677-4.043-7.129-.699-2.45-1.098-4.527-1.198-6.227H107.44c.2 4.302 1.323 8.203 3.374 11.705 2.052 3.502 4.852 6.478 8.4 8.93 3.554 2.456 7.731 4.352 12.532 5.702 4.802 1.351 10.052 2.026 15.757 2.026s11.025-.7 15.677-2.101c4.651-1.4 8.629-3.401 11.928-6.003 3.304-2.6 5.854-5.752 7.656-9.454 1.802-3.702 2.7-7.804 2.7-12.306 0-6.203-1.552-11.28-4.651-15.238a37.708 37.708 0 00-4.911-5.147l.039.025h18.901v47.813h9.658V13.246h-9.658z" fill="url(#paint1_linear_4011_1629)" fill-opacity=".2"/><path d="M251.604 64.923v-1.606a497.111 497.111 0 013.669-3.532 84.622 84.622 0 002.9-2.886 22.566 22.566 0 002.111-2.536c.574-.816 1.008-1.636 1.297-2.472.29-.835.435-1.73.435-2.696 0-1.07-.19-1.96-.574-2.681-.385-.716-.894-1.25-1.523-1.606a4.124 4.124 0 00-2.066-.53c-1.282 0-2.4.465-3.364 1.395-.963.93-1.602 2.286-1.921 4.062h-.639c0-.815.03-1.59.095-2.326.065-.74.289-1.35.674-1.846.574-.705 1.417-1.31 2.53-1.81a8.645 8.645 0 013.588-.756c.639 0 1.328.08 2.067.24a6.36 6.36 0 012.096.88c.659.43 1.203 1.041 1.617 1.846.414.8.624 1.846.624 3.132 0 .92-.145 1.78-.434 2.581-.29.8-.689 1.576-1.203 2.326a17.723 17.723 0 01-1.827 2.232 41.925 41.925 0 01-2.321 2.246c-.843.76-1.742 1.555-2.69 2.39a86.166 86.166 0 00-2.895 2.667h7.202c1.283 0 2.271-.28 2.965-.835.694-.556 1.038-1.401 1.038-2.536h.639v2.086c0 .43-.075.84-.225 1.235a1.962 1.962 0 01-.798.966c-.384.245-.948.37-1.697.37h-11.37z" fill="#5D3D1A"/><path d="M251.604 64.923v-1.606a497.111 497.111 0 013.669-3.532 84.622 84.622 0 002.9-2.886 22.566 22.566 0 002.111-2.536c.574-.816 1.008-1.636 1.297-2.472.29-.835.435-1.73.435-2.696 0-1.07-.19-1.96-.574-2.681-.385-.716-.894-1.25-1.523-1.606a4.124 4.124 0 00-2.066-.53c-1.282 0-2.4.465-3.364 1.395-.963.93-1.602 2.286-1.921 4.062h-.639c0-.815.03-1.59.095-2.326.065-.74.289-1.35.674-1.846.574-.705 1.417-1.31 2.53-1.81a8.645 8.645 0 013.588-.756c.639 0 1.328.08 2.067.24a6.36 6.36 0 012.096.88c.659.43 1.203 1.041 1.617 1.846.414.8.624 1.846.624 3.132 0 .92-.145 1.78-.434 2.581-.29.8-.689 1.576-1.203 2.326a17.723 17.723 0 01-1.827 2.232 41.925 41.925 0 01-2.321 2.246c-.843.76-1.742 1.555-2.69 2.39a86.166 86.166 0 00-2.895 2.667h7.202c1.283 0 2.271-.28 2.965-.835.694-.556 1.038-1.401 1.038-2.536h.639v2.086c0 .43-.075.84-.225 1.235a1.962 1.962 0 01-.798.966c-.384.245-.948.37-1.697.37h-11.37z" fill="url(#paint2_linear_4011_1629)" fill-opacity=".2"/><path d="M278.501 65.563c-1.857 0-3.354-.466-4.482-1.396-1.133-.93-1.947-2.241-2.451-3.932-.504-1.69-.754-3.662-.754-5.908 0-2.246.25-4.242.754-5.923.504-1.68 1.318-2.986 2.451-3.917 1.133-.93 2.625-1.395 4.482-1.395 1.856 0 3.378.465 4.496 1.395 1.123.93 1.932 2.236 2.436 3.917.504 1.681.754 3.652.754 5.923s-.25 4.217-.754 5.908c-.504 1.69-1.313 3.002-2.436 3.932-1.118.93-2.62 1.396-4.496 1.396zm0-1.286c1.751 0 2.934-.82 3.553-2.456.619-1.636.928-4.132.928-7.494s-.309-5.883-.928-7.509c-.619-1.625-1.807-2.44-3.553-2.44-1.747 0-2.935.815-3.554 2.44-.619 1.626-.928 4.132-.928 7.51 0 3.376.309 5.857.928 7.493.619 1.636 1.802 2.456 3.554 2.456z" fill="#5D3D1A"/><path d="M278.501 65.563c-1.857 0-3.354-.466-4.482-1.396-1.133-.93-1.947-2.241-2.451-3.932-.504-1.69-.754-3.662-.754-5.908 0-2.246.25-4.242.754-5.923.504-1.68 1.318-2.986 2.451-3.917 1.133-.93 2.625-1.395 4.482-1.395 1.856 0 3.378.465 4.496 1.395 1.123.93 1.932 2.236 2.436 3.917.504 1.681.754 3.652.754 5.923s-.25 4.217-.754 5.908c-.504 1.69-1.313 3.002-2.436 3.932-1.118.93-2.62 1.396-4.496 1.396zm0-1.286c1.751 0 2.934-.82 3.553-2.456.619-1.636.928-4.132.928-7.494s-.309-5.883-.928-7.509c-.619-1.625-1.807-2.44-3.553-2.44-1.747 0-2.935.815-3.554 2.44-.619 1.626-.928 4.132-.928 7.51 0 3.376.309 5.857.928 7.493.619 1.636 1.802 2.456 3.554 2.456z" fill="url(#paint3_linear_4011_1629)" fill-opacity=".2"/><path d="M293.874 64.922V46.948l-3.105 2.021-.579-.74 4.966-4.492h1.603v21.185h-2.885z" fill="#5D3D1A"/><path d="M293.874 64.922V46.948l-3.105 2.021-.579-.74 4.966-4.492h1.603v21.185h-2.885z" fill="url(#paint4_linear_4011_1629)" fill-opacity=".2"/><path d="M310.748 65.563c-1.857 0-3.354-.466-4.482-1.396-1.133-.93-1.947-2.241-2.451-3.932-.504-1.69-.753-3.662-.753-5.908 0-2.246.249-4.242.753-5.923.504-1.68 1.318-2.986 2.451-3.917 1.133-.93 2.625-1.395 4.482-1.395 1.856 0 3.379.465 4.496 1.395 1.123.93 1.932 2.236 2.436 3.917.504 1.681.754 3.652.754 5.923s-.25 4.217-.754 5.908c-.504 1.69-1.313 3.002-2.436 3.932-1.117.93-2.62 1.396-4.496 1.396zm0-1.286c1.751 0 2.934-.82 3.553-2.456.619-1.636.929-4.132.929-7.494s-.31-5.883-.929-7.509c-.619-1.625-1.807-2.44-3.553-2.44-1.747 0-2.935.815-3.554 2.44-.619 1.626-.928 4.132-.928 7.51 0 3.376.309 5.857.928 7.493.619 1.636 1.802 2.456 3.554 2.456z" fill="#5D3D1A"/><path d="M310.748 65.563c-1.857 0-3.354-.466-4.482-1.396-1.133-.93-1.947-2.241-2.451-3.932-.504-1.69-.753-3.662-.753-5.908 0-2.246.249-4.242.753-5.923.504-1.68 1.318-2.986 2.451-3.917 1.133-.93 2.625-1.395 4.482-1.395 1.856 0 3.379.465 4.496 1.395 1.123.93 1.932 2.236 2.436 3.917.504 1.681.754 3.652.754 5.923s-.25 4.217-.754 5.908c-.504 1.69-1.313 3.002-2.436 3.932-1.117.93-2.62 1.396-4.496 1.396zm0-1.286c1.751 0 2.934-.82 3.553-2.456.619-1.636.929-4.132.929-7.494s-.31-5.883-.929-7.509c-.619-1.625-1.807-2.44-3.553-2.44-1.747 0-2.935.815-3.554 2.44-.619 1.626-.928 4.132-.928 7.51 0 3.376.309 5.857.928 7.493.619 1.636 1.802 2.456 3.554 2.456z" fill="url(#paint5_linear_4011_1629)" fill-opacity=".2"/><path d="M2.88 65.018V47.684c0-.965-.135-1.736-.4-2.326-.264-.59-.878-.886-1.841-.886H0v-.64h13.64c.749 0 1.313.12 1.697.37.385.245.65.566.804.96.15.396.224.811.224 1.236v2.407h-.638c0-1.286-.35-2.221-1.039-2.807-.693-.59-1.681-.88-2.964-.88h-5.96v8.344h8.645v1.285H5.765v8.99h5.604c1.453 0 2.6-.27 3.444-.8.844-.536 1.507-1.446 2.002-2.727l.638.16-1.118 3.052c-.17.49-.454.88-.848 1.17-.394.29-.913.436-1.552.436H2.89l-.01-.01z" fill="#5D3D1A"/><path d="M2.88 65.018V47.684c0-.965-.135-1.736-.4-2.326-.264-.59-.878-.886-1.841-.886H0v-.64h13.64c.749 0 1.313.12 1.697.37.385.245.65.566.804.96.15.396.224.811.224 1.236v2.407h-.638c0-1.286-.35-2.221-1.039-2.807-.693-.59-1.681-.88-2.964-.88h-5.96v8.344h8.645v1.285H5.765v8.99h5.604c1.453 0 2.6-.27 3.444-.8.844-.536 1.507-1.446 2.002-2.727l.638.16-1.118 3.052c-.17.49-.454.88-.848 1.17-.394.29-.913.436-1.552.436H2.89l-.01-.01z" fill="url(#paint6_linear_4011_1629)" fill-opacity=".2"/><path d="M28.693 65.563c-.853 0-1.712-.09-2.58-.275a10.472 10.472 0 01-2.37-.786c-.714-.345-1.288-.755-1.712-1.235-.43-.48-.64-1.02-.64-1.621v-3.437h.575c.364 2.161 1.073 3.712 2.13 4.652 1.059.94 2.491 1.411 4.308 1.411.729 0 1.407-.12 2.051-.37a3.606 3.606 0 001.552-1.106c.395-.495.59-1.09.59-1.795 0-.94-.295-1.746-.88-2.407-.588-.66-1.466-1.335-2.64-2.02l-3.937-2.342c-1.368-.815-2.331-1.636-2.895-2.471-.569-.835-.848-1.85-.848-3.047 0-1.65.569-2.97 1.712-3.961 1.142-.996 2.64-1.491 4.496-1.491.789 0 1.593.085 2.401.255.809.17 1.557.425 2.241.755.684.33 1.233.73 1.647 1.2.414.471.624 1.016.624 1.637v3.436h-.58c-.363-2.16-1.057-3.701-2.08-4.622-1.024-.92-2.446-1.38-4.258-1.38-.619 0-1.217.135-1.791.4a3.59 3.59 0 00-1.393 1.12c-.35.48-.529 1.056-.529 1.716 0 .92.3 1.68.893 2.281.594.6 1.483 1.24 2.66 1.926l3.938 2.341c1.368.816 2.371 1.601 3.01 2.361.639.76.963 1.736.963 2.937 0 1.796-.599 3.236-1.791 4.317-1.198 1.08-2.815 1.62-4.867 1.62z" fill="#5D3D1A"/><path d="M28.693 65.563c-.853 0-1.712-.09-2.58-.275a10.472 10.472 0 01-2.37-.786c-.714-.345-1.288-.755-1.712-1.235-.43-.48-.64-1.02-.64-1.621v-3.437h.575c.364 2.161 1.073 3.712 2.13 4.652 1.059.94 2.491 1.411 4.308 1.411.729 0 1.407-.12 2.051-.37a3.606 3.606 0 001.552-1.106c.395-.495.59-1.09.59-1.795 0-.94-.295-1.746-.88-2.407-.588-.66-1.466-1.335-2.64-2.02l-3.937-2.342c-1.368-.815-2.331-1.636-2.895-2.471-.569-.835-.848-1.85-.848-3.047 0-1.65.569-2.97 1.712-3.961 1.142-.996 2.64-1.491 4.496-1.491.789 0 1.593.085 2.401.255.809.17 1.557.425 2.241.755.684.33 1.233.73 1.647 1.2.414.471.624 1.016.624 1.637v3.436h-.58c-.363-2.16-1.057-3.701-2.08-4.622-1.024-.92-2.446-1.38-4.258-1.38-.619 0-1.217.135-1.791.4a3.59 3.59 0 00-1.393 1.12c-.35.48-.529 1.056-.529 1.716 0 .92.3 1.68.893 2.281.594.6 1.483 1.24 2.66 1.926l3.938 2.341c1.368.816 2.371 1.601 3.01 2.361.639.76.963 1.736.963 2.937 0 1.796-.599 3.236-1.791 4.317-1.198 1.08-2.815 1.62-4.867 1.62z" fill="url(#paint7_linear_4011_1629)" fill-opacity=".2"/><path d="M46.207 65.018v-19.9h-2.88c-1.282 0-2.27.295-2.965.88-.693.586-1.038 1.526-1.038 2.807h-.639v-2.407c0-.425.075-.84.225-1.235.15-.395.42-.715.814-.96.394-.246.953-.37 1.682-.37h14.888v1.285h-7.202v19.9h-2.885z" fill="#5D3D1A"/><path d="M46.207 65.018v-19.9h-2.88c-1.282 0-2.27.295-2.965.88-.693.586-1.038 1.526-1.038 2.807h-.639v-2.407c0-.425.075-.84.225-1.235.15-.395.42-.715.814-.96.394-.246.953-.37 1.682-.37h14.888v1.285h-7.202v19.9h-2.885z" fill="url(#paint8_linear_4011_1629)" fill-opacity=".2"/><path d="M59.593 65.018c-.475 0-.884-.175-1.228-.52a1.723 1.723 0 01-.52-1.266c0-.5.175-.886.52-1.23.344-.346.753-.52 1.227-.52.475 0 .909.174 1.243.52.335.344.5.755.5 1.23s-.175.92-.52 1.266c-.344.345-.753.52-1.227.52h.005z" fill="#5D3D1A"/><path d="M59.593 65.018c-.475 0-.884-.175-1.228-.52a1.723 1.723 0 01-.52-1.266c0-.5.175-.886.52-1.23.344-.346.753-.52 1.227-.52.475 0 .909.174 1.243.52.335.344.5.755.5 1.23s-.175.92-.52 1.266c-.344.345-.753.52-1.227.52h.005z" fill="url(#paint9_linear_4011_1629)" fill-opacity=".2"/><defs><linearGradient id="paint0_linear_4011_1629" x1="142.075" y1="69.581" x2="154.598" y2="71.802" gradientUnits="userSpaceOnUse"><stop stop-color="#5E3E1B"/><stop offset=".231" stop-color="#EDCC85"/><stop offset=".481" stop-color="#815511"/><stop offset=".798" stop-color="#EDCC85"/><stop offset="1" stop-color="#544013"/></linearGradient><linearGradient id="paint1_linear_4011_1629" x1="111.926" y1="22.636" x2="207.907" y2="78.378" gradientUnits="userSpaceOnUse"><stop stop-color="#5E3E1B"/><stop offset=".231" stop-color="#EDCC85"/><stop offset=".481" stop-color="#815511"/><stop offset=".798" stop-color="#EDCC85"/><stop offset="1" stop-color="#544013"/></linearGradient><linearGradient id="paint2_linear_4011_1629" x1="252.256" y1="47.644" x2="268.098" y2="54.293" gradientUnits="userSpaceOnUse"><stop stop-color="#5E3E1B"/><stop offset=".231" stop-color="#EDCC85"/><stop offset=".481" stop-color="#815511"/><stop offset=".798" stop-color="#EDCC85"/><stop offset="1" stop-color="#544013"/></linearGradient><linearGradient id="paint3_linear_4011_1629" x1="271.525" y1="47.773" x2="288.496" y2="55.321" gradientUnits="userSpaceOnUse"><stop stop-color="#5E3E1B"/><stop offset=".231" stop-color="#EDCC85"/><stop offset=".481" stop-color="#815511"/><stop offset=".798" stop-color="#EDCC85"/><stop offset="1" stop-color="#544013"/></linearGradient><linearGradient id="paint4_linear_4011_1629" x1="290.494" y1="48.15" x2="298.841" y2="49.833" gradientUnits="userSpaceOnUse"><stop stop-color="#5E3E1B"/><stop offset=".231" stop-color="#EDCC85"/><stop offset=".481" stop-color="#815511"/><stop offset=".798" stop-color="#EDCC85"/><stop offset="1" stop-color="#544013"/></linearGradient><linearGradient id="paint5_linear_4011_1629" x1="303.772" y1="47.773" x2="320.744" y2="55.321" gradientUnits="userSpaceOnUse"><stop stop-color="#5E3E1B"/><stop offset=".231" stop-color="#EDCC85"/><stop offset=".481" stop-color="#815511"/><stop offset=".798" stop-color="#EDCC85"/><stop offset="1" stop-color="#544013"/></linearGradient><linearGradient id="paint6_linear_4011_1629" x1=".807" y1="48.248" x2="18.746" y2="57.852" gradientUnits="userSpaceOnUse"><stop stop-color="#5E3E1B"/><stop offset=".231" stop-color="#EDCC85"/><stop offset=".481" stop-color="#815511"/><stop offset=".798" stop-color="#EDCC85"/><stop offset="1" stop-color="#544013"/></linearGradient><linearGradient id="paint7_linear_4011_1629" x1="22.037" y1="47.908" x2="37.874" y2="54.353" gradientUnits="userSpaceOnUse"><stop stop-color="#5E3E1B"/><stop offset=".231" stop-color="#EDCC85"/><stop offset=".481" stop-color="#815511"/><stop offset=".798" stop-color="#EDCC85"/><stop offset="1" stop-color="#544013"/></linearGradient><linearGradient id="paint8_linear_4011_1629" x1="39.499" y1="48.246" x2="57.522" y2="57.984" gradientUnits="userSpaceOnUse"><stop stop-color="#5E3E1B"/><stop offset=".231" stop-color="#EDCC85"/><stop offset=".481" stop-color="#815511"/><stop offset=".798" stop-color="#EDCC85"/><stop offset="1" stop-color="#544013"/></linearGradient><linearGradient id="paint9_linear_4011_1629" x1="58.007" y1="62.218" x2="61.276" y2="64.314" gradientUnits="userSpaceOnUse"><stop stop-color="#5E3E1B"/><stop offset=".231" stop-color="#EDCC85"/><stop offset=".481" stop-color="#815511"/><stop offset=".798" stop-color="#EDCC85"/><stop offset="1" stop-color="#544013"/></linearGradient></defs></svg>