<svg width="319" height="109" viewBox="0 0 319 109" fill="none" xmlns="http://www.w3.org/2000/svg">
<path d="M151.287 97.7381L151.391 65.5523L141.689 62.1206L141.624 97.7231C141.624 97.7231 146.266 98.1783 151.282 97.7431L151.287 97.7381Z" fill="#584738"/>
<path d="M194.843 13.2465V50.87H173.077C167.657 50.87 162.272 49.9646 157.186 48.0836L151.401 46.0827V21.0003H141.744L141.709 42.4559C140.746 42.0657 139.787 41.6705 138.854 41.2703C134.202 39.2693 130.325 36.9682 127.22 34.3669C124.116 31.7656 122.569 28.3139 122.569 24.0118C122.569 21.6106 123.093 19.3595 124.146 17.2585C125.194 15.1575 126.746 13.3316 128.797 11.7808C130.849 10.23 133.374 8.97941 136.374 8.02895C139.373 7.07848 142.827 6.60325 146.725 6.60325C153.223 6.60325 158.748 7.97892 163.3 10.7303C167.847 13.4816 170.527 17.8088 171.325 23.7117H181.527C180.928 20.0098 179.575 16.6832 177.474 13.7318C175.373 10.7803 172.723 8.27907 169.524 6.22806C166.324 4.17705 162.696 2.62629 158.648 1.57577C154.601 0.525258 150.378 0 145.976 0C141.574 0 137.002 0.600295 132.85 1.80089C128.697 3.00148 125.049 4.75234 121.9 7.05347C118.75 9.3546 116.25 12.256 114.398 15.7577C112.552 19.2595 111.628 23.2614 111.628 27.7636C111.628 33.6665 113.126 38.4189 116.12 42.0207C119.115 45.6224 122.883 48.6239 127.425 51.0251C131.967 53.4263 136.883 55.4773 142.178 57.1781C147.468 58.8789 152.385 60.8049 156.931 62.956C161.473 65.107 165.241 67.7383 168.236 70.8348C171.23 73.9363 172.728 78.0934 172.728 83.2909C172.728 89.7941 170.357 94.5465 165.616 97.548C160.874 100.549 154.556 102.05 146.67 102.05C140.381 102.05 135.335 101.225 131.547 99.574C127.754 97.9231 124.859 95.9472 122.863 93.646C120.867 91.3449 119.519 88.9687 118.82 86.5175C118.122 84.0663 117.722 81.9903 117.622 80.2895H107.441C107.641 84.5916 108.764 88.4935 110.815 91.9952C112.866 95.4969 115.666 98.4734 119.215 100.925C122.768 103.381 126.946 105.277 131.747 106.627C136.548 107.978 141.799 108.653 147.503 108.653C153.208 108.653 158.528 107.953 163.18 106.552C167.832 105.152 171.809 103.151 175.108 100.549C178.412 97.9482 180.963 94.7966 182.765 91.0948C184.566 87.393 185.465 83.2909 185.465 78.7887C185.465 72.5857 183.913 67.5082 180.813 63.5512C179.351 61.6903 177.709 59.9745 175.902 58.4037L175.942 58.4287H194.843V106.242H204.5V13.2465H194.843Z" fill="#584738"/>
<path d="M251.605 64.9229V63.3171C252.948 62.0115 254.17 60.8359 255.273 59.7854C256.371 58.7399 257.34 57.7744 258.173 56.899C259.007 56.0235 259.71 55.1781 260.284 54.3627C260.858 53.5473 261.292 52.7269 261.582 51.8915C261.871 51.0561 262.016 50.1606 262.016 49.1952C262.016 48.1246 261.826 47.2342 261.442 46.5138C261.058 45.7985 260.549 45.2632 259.92 44.9081C259.291 44.5529 258.602 44.3778 257.854 44.3778C256.571 44.3778 255.453 44.843 254.49 45.7735C253.527 46.7039 252.888 48.0596 252.568 49.8355H251.929C251.929 49.0201 251.959 48.2447 252.024 47.5093C252.089 46.769 252.314 46.1587 252.698 45.6634C253.272 44.9581 254.115 44.3528 255.228 43.8525C256.341 43.3523 257.534 43.0972 258.817 43.0972C259.456 43.0972 260.145 43.1772 260.883 43.3373C261.622 43.4974 262.316 43.7925 262.979 44.2177C263.638 44.6479 264.182 45.2582 264.596 46.0636C265.011 46.864 265.22 47.9095 265.22 49.1952C265.22 50.1156 265.076 50.976 264.786 51.7764C264.497 52.5768 264.097 53.3522 263.583 54.1026C263.069 54.8529 262.465 55.5933 261.757 56.3337C261.053 57.074 260.279 57.8194 259.436 58.5798C258.592 59.3402 257.694 60.1355 256.746 60.971C255.797 61.8064 254.829 62.6918 253.851 63.6373H261.053C262.336 63.6373 263.324 63.3571 264.018 62.8019C264.711 62.2466 265.056 61.4012 265.056 60.2656H265.694V62.3516C265.694 62.7818 265.62 63.192 265.47 63.5872C265.32 63.9824 265.056 64.3026 264.671 64.5527C264.287 64.7978 263.723 64.9229 262.974 64.9229H251.605Z" fill="#584738"/>
<path d="M278.502 65.5628C276.645 65.5628 275.148 65.0976 274.02 64.1672C272.887 63.2367 272.073 61.9261 271.569 60.2352C271.065 58.5444 270.815 56.5734 270.815 54.3273C270.815 52.0812 271.065 50.0852 271.569 48.4044C272.073 46.7236 272.887 45.4179 274.02 44.4875C275.153 43.557 276.645 43.0918 278.502 43.0918C280.358 43.0918 281.88 43.557 282.998 44.4875C284.121 45.4179 284.93 46.7236 285.434 48.4044C285.938 50.0852 286.188 52.0562 286.188 54.3273C286.188 56.5984 285.938 58.5444 285.434 60.2352C284.93 61.9261 284.121 63.2367 282.998 64.1672C281.88 65.0976 280.378 65.5628 278.502 65.5628ZM278.502 64.2772C280.253 64.2772 281.436 63.4568 282.055 61.821C282.674 60.1852 282.983 57.689 282.983 54.3273C282.983 50.9657 282.674 48.4444 282.055 46.8186C281.436 45.1928 280.248 44.3774 278.502 44.3774C276.755 44.3774 275.567 45.1928 274.948 46.8186C274.329 48.4444 274.02 50.9507 274.02 54.3273C274.02 57.704 274.329 60.1852 274.948 61.821C275.567 63.4568 276.75 64.2772 278.502 64.2772Z" fill="#584738"/>
<path d="M293.874 64.9227V46.9489L290.769 48.9699L290.19 48.2295L295.156 43.7373H296.759V64.9227H293.874Z" fill="#584738"/>
<path d="M310.748 65.5628C308.891 65.5628 307.394 65.0976 306.266 64.1672C305.133 63.2367 304.32 61.9261 303.816 60.2352C303.312 58.5444 303.062 56.5734 303.062 54.3273C303.062 52.0812 303.312 50.0852 303.816 48.4044C304.32 46.7236 305.133 45.4179 306.266 44.4875C307.399 43.557 308.891 43.0918 310.748 43.0918C312.605 43.0918 314.127 43.557 315.245 44.4875C316.368 45.4179 317.176 46.7236 317.681 48.4044C318.185 50.0852 318.434 52.0562 318.434 54.3273C318.434 56.5984 318.185 58.5444 317.681 60.2352C317.176 61.9261 316.368 63.2367 315.245 64.1672C314.127 65.0976 312.625 65.5628 310.748 65.5628ZM310.748 64.2772C312.5 64.2772 313.683 63.4568 314.302 61.821C314.921 60.1852 315.23 57.689 315.23 54.3273C315.23 50.9657 314.921 48.4444 314.302 46.8186C313.683 45.1928 312.495 44.3774 310.748 44.3774C309.001 44.3774 307.813 45.1928 307.195 46.8186C306.576 48.4444 306.266 50.9507 306.266 54.3273C306.266 57.704 306.576 60.1852 307.195 61.821C307.813 63.4568 308.996 64.2772 310.748 64.2772Z" fill="#584738"/>
<path d="M2.8798 65.0179V47.6844C2.8798 46.7189 2.74505 45.9486 2.48053 45.3583C2.21601 44.768 1.60212 44.4728 0.638859 44.4728H0V43.8325H13.6403C14.389 43.8325 14.9529 43.9526 15.3372 44.2027C15.7215 44.4478 15.9861 44.768 16.1408 45.1632C16.2905 45.5584 16.3654 45.9736 16.3654 46.3988V48.805H15.7265C15.7265 47.5193 15.3772 46.5839 14.6884 45.9986C13.9947 45.4083 13.0065 45.1182 11.7238 45.1182H5.76456V53.4623H14.4089V54.7479H5.76456V63.7373H11.3694C12.8218 63.7373 13.9697 63.4672 14.8132 62.9369C15.6567 62.4016 16.3205 61.4912 16.8146 60.2106L17.4534 60.3706L16.3354 63.4221C16.1657 63.9124 15.8813 64.3026 15.487 64.5927C15.0927 64.8829 14.5736 65.0279 13.9348 65.0279H2.88979L2.8798 65.0179Z" fill="#584738"/>
<path d="M28.6934 65.5632C27.8399 65.5632 26.9815 65.4731 26.1131 65.288C25.2496 65.1079 24.4561 64.8428 23.7424 64.5027C23.0287 64.1575 22.4547 63.7473 22.0305 63.267C21.6012 62.7868 21.3916 62.2465 21.3916 61.6462V58.2096H21.9656C22.3299 60.3706 23.0386 61.9214 24.0967 62.8618C25.1548 63.8023 26.5872 64.2725 28.4039 64.2725C29.1326 64.2725 29.8114 64.1525 30.4552 63.9024C31.0941 63.6572 31.6131 63.2871 32.0074 62.7968C32.4017 62.3016 32.5963 61.7063 32.5963 61.0009C32.5963 60.0605 32.3019 59.2551 31.7179 58.5947C31.129 57.9344 30.2506 57.2591 29.0777 56.5738L25.1398 54.2326C23.7723 53.4172 22.809 52.5968 22.2451 51.7614C21.6761 50.926 21.3966 49.9105 21.3966 48.7149C21.3966 47.0641 21.9656 45.7434 23.1085 44.7529C24.2514 43.7574 25.7487 43.2622 27.6054 43.2622C28.3939 43.2622 29.1975 43.3472 30.006 43.5173C30.8146 43.6874 31.5632 43.9425 32.247 44.2727C32.9307 44.6029 33.4798 45.0031 33.894 45.4733C34.3083 45.9435 34.5179 46.4888 34.5179 47.1091V50.5458H33.9389C33.5746 48.3847 32.8808 46.844 31.8577 45.9235C30.8345 45.0031 29.4121 44.5428 27.6004 44.5428C26.9815 44.5428 26.3826 44.6779 25.8086 44.943C25.2347 45.2132 24.7705 45.5833 24.4161 46.0636C24.0668 46.5438 23.8871 47.1191 23.8871 47.7794C23.8871 48.6999 24.1866 49.4603 24.7805 50.0605C25.3744 50.6608 26.2628 51.3012 27.4407 51.9865L31.3785 54.3276C32.7461 55.143 33.7493 55.9284 34.3881 56.6888C35.0269 57.4492 35.3514 58.4247 35.3514 59.6253C35.3514 61.4211 34.7524 62.8618 33.5596 63.9424C32.3618 65.0229 30.7447 65.5632 28.6934 65.5632Z" fill="#584738"/>
<path d="M46.2065 65.0179V45.1182H43.3267C42.044 45.1182 41.0558 45.4133 40.362 45.9986C39.6683 46.5839 39.3239 47.5243 39.3239 48.805H38.6851V46.3988C38.6851 45.9736 38.7599 45.5584 38.9097 45.1632C39.0594 44.768 39.3289 44.4478 39.7232 44.2027C40.1175 43.9576 40.6765 43.8325 41.4051 43.8325H56.2932V45.1182H49.0912V65.0179H46.2065Z" fill="#584738"/>
<path d="M59.5925 65.0182C59.1184 65.0182 58.7091 64.8431 58.3648 64.4979C58.0204 64.1528 57.8457 63.7325 57.8457 63.2323C57.8457 62.7321 58.0204 62.3469 58.3648 62.0017C58.7091 61.6565 59.1184 61.4814 59.5925 61.4814C60.0667 61.4814 60.5009 61.6565 60.8353 62.0017C61.1697 62.3469 61.3344 62.7571 61.3344 63.2323C61.3344 63.7075 61.1597 64.1528 60.8153 64.4979C60.471 64.8431 60.0617 65.0182 59.5875 65.0182H59.5925Z" fill="#584738"/>
</svg>
